# xmcd
#
# Track frame offsets: 
#        150
#        36468
#        85290
#        123358
#        160255
#        198928
#
# Disc length: 2805 seconds
#
# Revision: 1
# Processed by: cddbd v1.5.2PL0 Copyright (c) Steve Scherf et al.
# Submitted via: ExactAudioCopy v1.1
#
DISCID=4a0af306
DTITLE=Rudolf Kempe u. Staatskapelle Dresden - Galakonzert der Dresden
DTITLE=er Staatskapelle (1972)
DYEAR=2002
DGENRE=Classical
TTITLE0=Der Fledermaus, Overturs
TTITLE1=G'shichten aus dem Wienerwald, Waltz, op.325
TTITLE2=Spharen-Klange, Waltz, op.235
TTITLE3=Ein Morgen,ein Mittag, ein Abend in Wien, Overture
TTITLE4=Gold und Silber, waltz, op.79
TTITLE5=Leichtes Blut, Schnellpolka, op.319
EXTD=YEAR: 1972
EXTT0=
EXTT1=
EXTT2=
EXTT3=
EXTT4=
EXTT5=
PLAYORDER=
